<svg width="57" height="41" viewBox="0 0 57 41" fill="none" xmlns="http://www.w3.org/2000/svg">
<ellipse cx="28.5" cy="20.5" rx="28.5" ry="20.5" fill="#E0E5CD"/>
<path d="M22.168 28V26.8333C22.168 25.2862 22.7826 23.8025 23.8765 22.7085C24.9705 21.6146 26.4542 21 28.0013 21M28.0013 21C29.5484 21 31.0321 21.6146 32.1261 22.7085C33.2201 23.8025 33.8346 25.2862 33.8346 26.8333V28M28.0013 21C28.9296 21 29.8198 20.6313 30.4762 19.9749C31.1326 19.3185 31.5013 18.4283 31.5013 17.5C31.5013 16.5717 31.1326 15.6815 30.4762 15.0251C29.8198 14.3687 28.9296 14 28.0013 14C27.073 14 26.1828 14.3687 25.5264 15.0251C24.8701 15.6815 24.5013 16.5717 24.5013 17.5C24.5013 18.4283 24.8701 19.3185 25.5264 19.9749C26.1828 20.6313 27.073 21 28.0013 21ZM15.168 28V26.8333C15.168 25.9051 15.5367 25.0148 16.1931 24.3585C16.8495 23.7021 17.7397 23.3333 18.668 23.3333M18.668 23.3333C19.2868 23.3333 19.8803 23.0875 20.3179 22.6499C20.7555 22.2123 21.0013 21.6188 21.0013 21C21.0013 20.3812 20.7555 19.7877 20.3179 19.3501C19.8803 18.9125 19.2868 18.6667 18.668 18.6667C18.0491 18.6667 17.4556 18.9125 17.0181 19.3501C16.5805 19.7877 16.3346 20.3812 16.3346 21C16.3346 21.6188 16.5805 22.2123 17.0181 22.6499C17.4556 23.0875 18.0491 23.3333 18.668 23.3333ZM40.8346 28V26.8333C40.8346 25.9051 40.4659 25.0148 39.8095 24.3585C39.1531 23.7021 38.2629 23.3333 37.3346 23.3333M37.3346 23.3333C37.9535 23.3333 38.547 23.0875 38.9845 22.6499C39.4221 22.2123 39.668 21.6188 39.668 21C39.668 20.3812 39.4221 19.7877 38.9845 19.3501C38.547 18.9125 37.9535 18.6667 37.3346 18.6667C36.7158 18.6667 36.1223 18.9125 35.6847 19.3501C35.2471 19.7877 35.0013 20.3812 35.0013 21C35.0013 21.6188 35.2471 22.2123 35.6847 22.6499C36.1223 23.0875 36.7158 23.3333 37.3346 23.3333Z" stroke="#80942F" stroke-width="1.5" stroke-linecap="round" stroke-linejoin="round"/>
</svg>
