<svg width="57" height="41" viewBox="0 0 57 41" fill="none" xmlns="http://www.w3.org/2000/svg">
<ellipse cx="28.5" cy="20.5" rx="28.5" ry="20.5" fill="#E0E5CD"/>
<path fill-rule="evenodd" clip-rule="evenodd" d="M29.6903 34.1329L29.6763 34.1352L29.5934 34.176L29.5701 34.1807L29.5538 34.176L29.4709 34.134C29.4585 34.1309 29.4492 34.1333 29.4429 34.141L29.4383 34.1527L29.4184 34.652L29.4243 34.6754L29.4359 34.6905L29.5573 34.7769L29.5748 34.7815L29.5888 34.7769L29.7101 34.6905L29.7241 34.6719L29.7288 34.652L29.7089 34.1539C29.7058 34.1414 29.6996 34.1344 29.6903 34.1329ZM29.9983 34.001L29.9819 34.0034L29.7673 34.1119L29.7556 34.1235L29.7521 34.1364L29.7731 34.638L29.7789 34.652L29.7883 34.6614L30.0228 34.7687C30.0375 34.7726 30.0488 34.7695 30.0566 34.7594L30.0613 34.743L30.0216 34.0267C30.0177 34.0119 30.0099 34.0034 29.9983 34.001ZM29.1641 34.0034C29.159 34.0003 29.1528 33.9993 29.1469 34.0006C29.1411 34.0019 29.1359 34.0054 29.1326 34.0104L29.1256 34.0267L29.0859 34.743C29.0867 34.757 29.0933 34.7664 29.1058 34.771L29.1233 34.7687L29.3578 34.6602L29.3694 34.6509L29.3729 34.638L29.3939 34.1364L29.3904 34.1224L29.3788 34.1107L29.1641 34.0034Z" fill="#667E06"/>
<path fill-rule="evenodd" clip-rule="evenodd" d="M20.4962 28.164C18.7031 26.1923 18.2131 23.698 18.4312 21.4696C18.6716 19.0115 19.7927 16.6536 21.2522 15.4368C23.2029 13.8116 25.2516 13.1443 27.0296 12.8176C27.8955 12.6698 28.7674 12.5596 29.6429 12.4875C30.1142 12.4431 30.5914 12.3988 31.0499 12.2845C32.0159 12.043 32.9691 11.651 33.7542 11.028C34.1136 10.7421 34.4776 10.4528 34.9617 10.5065C35.1358 10.5258 35.3032 10.5841 35.4517 10.677C35.6001 10.7699 35.7257 10.8951 35.8192 11.0431C39.5526 16.9546 38.9891 23.2301 35.8706 27.1828C34.3131 29.1556 32.1256 30.5323 29.5741 30.9395C27.3481 31.293 24.9156 30.8975 22.4644 29.6141C22.249 30.2835 22.089 30.9695 21.9861 31.6651C21.9423 31.9715 21.7786 32.2479 21.531 32.4335C21.2835 32.6191 20.9723 32.6988 20.666 32.6551C20.3597 32.6113 20.0833 32.4476 19.8976 32.2C19.712 31.9525 19.6323 31.6413 19.6761 31.335C19.8207 30.3258 20.0961 29.2513 20.4962 28.164ZM27.4496 15.1125C28.2709 14.962 29.0421 14.8896 29.7911 14.8161C30.4024 14.7578 31.0184 14.6971 31.6157 14.5478C32.6217 14.3013 33.5852 13.9057 34.4741 13.3741C37.0151 18.1773 36.3057 22.8638 34.0389 25.7385C32.8162 27.2878 31.1351 28.3285 29.2089 28.6341C27.4787 28.9095 25.4756 28.6061 23.3406 27.4371C24.6379 24.7923 26.7589 22.2571 29.5204 20.877C29.7973 20.7387 30.008 20.496 30.106 20.2024C30.204 19.9088 30.1814 19.5882 30.0431 19.3113C29.9048 19.0344 29.6621 18.8237 29.3685 18.7257C29.0749 18.6277 28.7543 18.6503 28.4774 18.7886C25.4347 20.31 23.1037 22.9408 21.5882 25.7466C20.8404 24.5216 20.6164 23.0971 20.7541 21.696C20.9512 19.68 21.8741 17.9568 22.7456 17.2288C24.2949 15.9373 25.9282 15.3925 27.4507 15.1125H27.4496Z" fill="#667E06"/>
</svg>
