<svg width="57" height="41" viewBox="0 0 57 41" fill="none" xmlns="http://www.w3.org/2000/svg">
<ellipse cx="28.5" cy="20.5" rx="28.5" ry="20.5" fill="#E0E5CD"/>
<path d="M32.8738 30.2812C31.3513 31.0052 29.6859 31.379 28 31.375C21.728 31.375 16.625 26.272 16.625 20C16.625 17.3094 17.5499 14.7684 19.25 12.7305V14.75H21V9.5H15.75V11.25H18.2368C16.0673 13.6473 14.8687 16.7668 14.875 20C14.875 27.2371 20.7629 33.125 28 33.125C29.9462 33.1291 31.8687 32.6973 33.6263 31.8615L32.8738 30.2812Z" fill="#80942F"/>
<path d="M32.375 13.875C29.61 13.875 27.3429 16.0249 27.1443 18.74C26.1823 17.8623 24.9272 17.3754 23.625 17.375H20.125V20.875C20.125 23.7704 22.4805 26.125 25.375 26.125H27.125V29.625H28.875V22.625H30.625C33.5195 22.625 35.875 20.2704 35.875 17.375V13.875H32.375ZM25.375 24.375C23.4447 24.375 21.875 22.8053 21.875 20.875V19.125H23.625C25.5553 19.125 27.125 20.6947 27.125 22.625V23.1378L25.1186 21.1314L23.8814 22.3686L25.8878 24.375H25.375ZM34.125 17.375C34.125 19.3053 32.5553 20.875 30.625 20.875H30.1122L32.1186 18.8686L30.8814 17.6314L28.875 19.6378V19.125C28.875 17.1947 30.4447 15.625 32.375 15.625H34.125V17.375Z" fill="#80942F"/>
<path d="M41.1262 20C41.1262 12.7629 35.2384 6.87503 28.0012 6.87503C26.055 6.87098 24.1326 7.3027 22.375 8.13853L23.1275 9.71878C24.65 8.9948 26.3154 8.62107 28.0012 8.62503C34.2732 8.62503 39.3762 13.728 39.3762 20C39.3762 22.6907 38.4514 25.2317 36.7512 27.2695V25.25H35.0012V30.5H40.2512V28.75H37.7645C39.934 26.3528 41.1325 23.2332 41.1262 20Z" fill="#80942F"/>
</svg>
