<svg width="57" height="41" viewBox="0 0 57 41" fill="none" xmlns="http://www.w3.org/2000/svg">
<ellipse cx="28.5" cy="20.5" rx="28.5" ry="20.5" fill="#E0E5CD"/>
<path d="M22.582 33.5C25.4815 33.5 27.832 31.1495 27.832 28.25C27.832 25.3505 25.4815 23 22.582 23C19.6825 23 17.332 25.3505 17.332 28.25C17.332 31.1495 19.6825 33.5 22.582 33.5Z" stroke="#80942F" stroke-width="1.5" stroke-linecap="round" stroke-linejoin="round"/>
<path d="M37.1641 33.5C39.0971 33.5 40.6641 31.933 40.6641 30C40.6641 28.067 39.0971 26.5 37.1641 26.5C35.2311 26.5 33.6641 28.067 33.6641 30C33.6641 31.933 35.2311 33.5 37.1641 33.5Z" stroke="#80942F" stroke-width="1.5" stroke-linecap="round" stroke-linejoin="round"/>
<path d="M17.332 21.2504C18.6548 20.2582 20.2316 19.6611 21.8798 19.5283C23.528 19.3955 25.1801 19.7324 26.6447 20.5C28.1092 21.2676 29.3263 22.4346 30.1549 23.8655C30.9834 25.2965 31.3896 26.933 31.3262 28.5853C31.2994 29.2899 31.2865 29.6434 31.458 29.8219C31.6295 30.0004 31.948 30.0004 32.5839 30.0004H33.6654M30.1654 19.5004L33.789 20.1794C36.519 20.6928 37.8852 20.9483 38.6914 21.9201C39.4987 22.8919 39.4987 24.2884 39.4987 27.0838M38.332 23.0004H37.1654" stroke="#80942F" stroke-width="1.5" stroke-linecap="round" stroke-linejoin="round"/>
<path d="M30.1667 23.5833V20.1848C30.1667 19.7283 30.1009 19.2811 29.9695 18.8432L28.4167 12.5M19.6667 19.5V12.5M18.5 12.5H30.1667M36 20.0833V18.3333C36 17.7145 36.2458 17.121 36.6834 16.6834C37.121 16.2458 37.7145 16 38.3333 16M23.1667 19.5V12.5" stroke="#80942F" stroke-width="1.5" stroke-linecap="round" stroke-linejoin="round"/>
</svg>
