<svg width="12" height="12" viewBox="0 0 12 12" fill="none" xmlns="http://www.w3.org/2000/svg">
<path d="M5.525 7.475L4.6 8.4C4.405 8.595 4.095 8.595 3.895 8.405C3.84 8.35 3.785 8.3 3.73 8.245C3.215 7.725 2.75 7.18 2.335 6.61C1.925 6.04 1.595 5.47 1.355 4.905C1.12 4.335 1 3.79 1 3.27C1 2.93 1.06 2.605 1.18 2.305C1.3 2 1.49 1.72 1.755 1.47C2.075 1.155 2.425 1 2.795 1C2.935 1 3.075 1.03 3.2 1.09C3.33 1.15 3.445 1.24 3.535 1.37L4.695 3.005C4.785 3.13 4.85 3.245 4.895 3.355C4.94 3.46 4.965 3.565 4.965 3.66C4.965 3.78 4.93 3.9 4.86 4.015C4.795 4.13 4.7 4.25 4.58 4.37L4.2 4.765C4.145 4.82 4.12 4.885 4.12 4.965C4.12 5.005 4.125 5.04 4.135 5.08C4.15 5.12 4.165 5.15 4.175 5.18C4.265 5.345 4.42 5.56 4.64 5.82C4.865 6.08 5.105 6.345 5.365 6.61C5.415 6.66 5.47 6.71 5.52 6.76C5.72 6.955 5.725 7.275 5.525 7.475Z" fill="#AF6F28"/>
<path d="M10.9858 9.16453C10.9858 9.30453 10.9608 9.44953 10.9108 9.58953C10.8958 9.62953 10.8808 9.66953 10.8608 9.70953C10.7758 9.88953 10.6658 10.0595 10.5208 10.2195C10.2758 10.4895 10.0058 10.6845 9.70078 10.8095C9.69578 10.8095 9.69078 10.8145 9.68578 10.8145C9.39078 10.9345 9.07078 10.9995 8.72578 10.9995C8.21578 10.9995 7.67078 10.8795 7.09578 10.6345C6.52078 10.3895 5.94578 10.0595 5.37578 9.64453C5.18078 9.49953 4.98578 9.35453 4.80078 9.19953L6.43578 7.56453C6.57578 7.66953 6.70078 7.74953 6.80578 7.80453C6.83078 7.81453 6.86078 7.82953 6.89578 7.84453C6.93578 7.85953 6.97578 7.86453 7.02078 7.86453C7.10578 7.86453 7.17078 7.83453 7.22578 7.77953L7.60578 7.40453C7.73078 7.27953 7.85078 7.18453 7.96578 7.12453C8.08078 7.05453 8.19578 7.01953 8.32078 7.01953C8.41578 7.01953 8.51578 7.03953 8.62578 7.08453C8.73578 7.12953 8.85078 7.19453 8.97578 7.27953L10.6308 8.45453C10.7608 8.54453 10.8508 8.64953 10.9058 8.77453C10.9558 8.89953 10.9858 9.02453 10.9858 9.16453Z" fill="#AF6F28"/>
</svg>
