<svg width="50" height="50" viewBox="0 0 50 50" fill="none" xmlns="http://www.w3.org/2000/svg">
<circle cx="25" cy="25" r="24.5" fill="white" stroke="#D5D5D5"/>
<g clip-path="url(#clip0_1163_12891)">
<path d="M24.5 39C32.5081 39 39 32.5081 39 24.5C39 16.4919 32.5081 10 24.5 10C16.4919 10 10 16.4919 10 24.5C10 32.5081 16.4919 39 24.5 39Z" fill="#DD2E44"/>
<path d="M24.5 35.375C30.5061 35.375 35.375 30.5061 35.375 24.5C35.375 18.4939 30.5061 13.625 24.5 13.625C18.4939 13.625 13.625 18.4939 13.625 24.5C13.625 30.5061 18.4939 35.375 24.5 35.375Z" fill="white"/>
<path d="M24.5009 32.5564C28.9498 32.5564 32.5564 28.9498 32.5564 24.5009C32.5564 20.0519 28.9498 16.4453 24.5009 16.4453C20.0519 16.4453 16.4453 20.0519 16.4453 24.5009C16.4453 28.9498 20.0519 32.5564 24.5009 32.5564Z" fill="#DD2E44"/>
<path d="M24.5013 29.3327C27.1707 29.3327 29.3346 27.1687 29.3346 24.4993C29.3346 21.83 27.1707 19.666 24.5013 19.666C21.8319 19.666 19.668 21.83 19.668 24.4993C19.668 27.1687 21.8319 29.3327 24.5013 29.3327Z" fill="white"/>
<path d="M24.4987 26.9173C25.8334 26.9173 26.9154 25.8353 26.9154 24.5007C26.9154 23.166 25.8334 22.084 24.4987 22.084C23.164 22.084 22.082 23.166 22.082 24.5007C22.082 25.8353 23.164 26.9173 24.4987 26.9173Z" fill="#DD2E44"/>
<path opacity="0.2" d="M24.6926 24.7266L35.2809 34.1951C35.2809 34.1951 33.1485 36.9146 28.925 38.3106L24.1602 24.8377L24.6926 24.7266Z" fill="black"/>
<path d="M24.737 25.3052C24.5782 25.3058 24.4228 25.2591 24.2906 25.1711C24.1584 25.0831 24.0554 24.9577 23.9946 24.811C23.9338 24.6643 23.918 24.5029 23.9492 24.3472C23.9804 24.1915 24.0572 24.0485 24.1698 23.9366L24.6234 23.4831C24.7737 23.3327 24.9776 23.2481 25.1902 23.248C25.4028 23.248 25.6068 23.3324 25.7572 23.4827C25.9076 23.633 25.9921 23.8369 25.9922 24.0495C25.9923 24.2621 25.9079 24.4661 25.7576 24.6165L25.3033 25.07C25.1529 25.22 24.9494 25.3046 24.737 25.3052Z" fill="#FFAC33"/>
<path d="M29.3474 15.6234C29.0228 17.2982 29.3474 19.4023 29.3474 19.4023L35.0298 13.4509C35.2642 12.2796 34.6045 10.2834 33.6459 10.0369C32.6872 9.79041 30.36 10.6838 29.3474 15.6234ZM33.3776 19.6536C31.7029 19.9783 29.5987 19.6536 29.5987 19.6536L35.5502 13.9712C36.7215 13.7368 38.7176 14.3966 38.9641 15.3552C39.2106 16.3138 38.3173 18.641 33.3776 19.6536Z" fill="#55ACEE"/>
<path d="M36.4216 13.6139L27.0594 24.1683C26.7678 24.4599 25.7117 24.8788 25.0375 24.2053C24.3632 23.5319 24.7 22.5298 24.9916 22.2374L35.6297 12.8212C35.6297 12.8212 36.1743 12.3097 36.5634 12.6988C36.9525 13.0879 36.4216 13.6139 36.4216 13.6139Z" fill="#3A87C2"/>
</g>
<defs>
<clipPath id="clip0_1163_12891">
<rect width="29" height="29" fill="white" transform="translate(10 10)"/>
</clipPath>
</defs>
</svg>
